<svg width="27" height="24" viewBox="0 0 27 24" fill="none" xmlns="http://www.w3.org/2000/svg">
<g id="Iconly/Light-Outline/Heart">
<g id="Heart">
<g id="Group 3">
<mask id="mask0_14_152" style="mask-type:alpha" maskUnits="userSpaceOnUse" x="0" y="4" width="21" height="20">
<path id="Clip 2" fill-rule="evenodd" clip-rule="evenodd" d="M0 4H20.4725V23.501H0V4Z" fill="white"/>
</mask>
<g mask="url(#mask0_14_152)">
<path id="Fill 1" fill-rule="evenodd" clip-rule="evenodd" d="M1.82371 13.1231C3.22571 17.4851 8.76471 21.0121 10.2367 21.8851C11.7137 21.0031 17.2927 17.4371 18.6497 13.1271C19.5407 10.3411 18.7137 6.8121 15.4277 5.7531C13.8357 5.2421 11.9787 5.5531 10.6967 6.5451C10.4287 6.7511 10.0567 6.7551 9.78671 6.5511C8.42871 5.5301 6.65471 5.2311 5.03771 5.7531C1.75671 6.8111 0.932712 10.3401 1.82371 13.1231ZM10.2377 23.5011C10.1137 23.5011 9.99071 23.4711 9.87871 23.4101C9.56571 23.2391 2.19271 19.1751 0.395713 13.5811C0.394713 13.5811 0.394713 13.5801 0.394713 13.5801C-0.733288 10.0581 0.522713 5.6321 4.57771 4.3251C6.48171 3.7091 8.55671 3.9801 10.2347 5.0391C11.8607 4.0111 14.0207 3.7271 15.8867 4.3251C19.9457 5.6341 21.2057 10.0591 20.0787 13.5801C18.3397 19.1101 10.9127 23.2351 10.5977 23.4081C10.4857 23.4701 10.3617 23.5011 10.2377 23.5011Z" fill="white"/>
</g>
</g>
<path id="Fill 4" fill-rule="evenodd" clip-rule="evenodd" d="M16.1537 11.625C15.7667 11.625 15.4387 11.328 15.4067 10.936C15.3407 10.114 14.7907 9.42 14.0077 9.167C13.6127 9.039 13.3967 8.616 13.5237 8.223C13.6527 7.829 14.0717 7.615 14.4677 7.739C15.8307 8.18 16.7857 9.387 16.9027 10.814C16.9357 11.227 16.6287 11.589 16.2157 11.622C16.1947 11.624 16.1747 11.625 16.1537 11.625Z" fill="white"/>
</g>
</g>
</svg>
