<svg width="20" height="20" viewBox="0 0 20 20" fill="none" xmlns="http://www.w3.org/2000/svg">
<path d="M10.06 5.80005C7.74 5.80005 5.84 7.70005 5.84 10.02C5.84 12.34 7.74 14.24 10.06 14.24C12.38 14.24 14.26 12.34 14.26 10.02C14.26 7.70005 12.36 5.80005 10.06 5.80005ZM10.06 13.24C8.28 13.24 6.84 11.8 6.84 10.02C6.84 8.24005 8.28 6.80005 10.06 6.80005C11.82 6.80005 13.26 8.24005 13.26 10.02C13.26 11.8 11.82 13.24 10.06 13.24Z" fill="white"/>
<path d="M14.76 3.42004C14.32 3.42004 13.92 3.58004 13.62 3.88004C13.32 4.18004 13.16 4.58004 13.16 5.02004C13.16 5.46004 13.32 5.86004 13.62 6.16004C13.92 6.46004 14.32 6.62004 14.76 6.62004C15.2 6.62004 15.6 6.46004 15.9 6.16004C16.18 5.88004 16.36 5.48004 16.38 5.04004V5.02004C16.38 4.60004 16.2 4.20004 15.92 3.92004C15.62 3.60004 15.2 3.42004 14.76 3.42004ZM15.18 5.44004C14.96 5.66004 14.54 5.66004 14.32 5.44004C14.2 5.32004 14.14 5.18004 14.14 5.02004C14.14 4.86004 14.2 4.70004 14.32 4.60004C14.44 4.48004 14.58 4.42004 14.74 4.42004C14.9 4.42004 15.06 4.48004 15.18 4.60004C15.28 4.70004 15.36 4.86004 15.36 5.00004C15.36 5.18004 15.3 5.34004 15.18 5.44004Z" fill="white"/>
<path d="M13.56 1.40002H6.54C3.72 1.40002 1.44 3.68002 1.44 6.50002V13.54C1.44 16.36 3.72 18.64 6.54 18.64H13.58C16.4 18.64 18.68 16.36 18.68 13.54V6.50002C18.66 3.68002 16.38 1.40002 13.56 1.40002ZM17.66 13.54C17.66 15.8 15.82 17.64 13.56 17.64H6.54C4.28 17.64 2.44 15.8 2.44 13.54V6.50002C2.44 4.24002 4.28 2.40002 6.54 2.40002H13.58C15.84 2.40002 17.68 4.24002 17.68 6.50002V13.54H17.66Z" fill="white"/>
</svg>
