<svg width="18" height="17" viewBox="0 0 18 17" fill="none" xmlns="http://www.w3.org/2000/svg">
<path d="M9.64868 2.12236C9.35965 1.65192 8.64032 1.65192 8.35128 2.12236L6.31574 5.43546C6.17296 5.66785 5.92618 5.82644 5.64488 5.86656L1.83014 6.41072C1.18943 6.50212 0.964687 7.26613 1.46367 7.65657L4.30548 9.88018C4.56854 10.086 4.69223 10.4107 4.62833 10.7276L3.88495 14.4146C3.76744 14.9974 4.41528 15.4503 4.97114 15.1739L8.5632 13.3876C8.8366 13.2516 9.16337 13.2516 9.43677 13.3876L13.0288 15.1739C13.5847 15.4503 14.2325 14.9974 14.115 14.4146L13.3716 10.7276C13.3077 10.4107 13.4314 10.086 13.6945 9.88018L16.5363 7.65657C17.0353 7.26614 16.8105 6.50212 16.1698 6.41072L12.3551 5.86656C12.0738 5.82644 11.827 5.66785 11.6842 5.43546L9.64868 2.12236Z" fill="#E6EBF1"/>
</svg>
