<svg width="21" height="21" viewBox="0 0 21 21" fill="none" xmlns="http://www.w3.org/2000/svg">
<path fill-rule="evenodd" clip-rule="evenodd" d="M10.25 1.5C5.425 1.5 1.5 5.425 1.5 10.25C1.5 15.075 5.425 19 10.25 19C15.075 19 19 15.075 19 10.25C19 5.425 15.075 1.5 10.25 1.5ZM10.25 20.5C4.598 20.5 0 15.902 0 10.25C0 4.598 4.598 0 10.25 0C15.902 0 20.5 4.598 20.5 10.25C20.5 15.902 15.902 20.5 10.25 20.5Z" fill="white"/>
<path fill-rule="evenodd" clip-rule="evenodd" d="M9.13382 8.08639C8.95682 9.08739 8.95382 11.4784 9.13082 12.4284C10.0088 12.1184 11.9108 10.8684 12.4228 10.2494C11.9128 9.64839 10.0348 8.42439 9.13382 8.08639ZM8.82782 14.0014C8.55782 14.0014 8.30182 13.9244 8.09282 13.7164C7.93182 13.5574 7.50182 13.1324 7.49982 10.3334C7.49882 7.36139 7.94582 6.91939 8.09282 6.77239C8.61582 6.25439 9.46782 6.60939 9.83082 6.76139C10.3508 6.97839 13.9998 8.84739 13.9998 10.2454C13.9998 11.5554 10.7158 13.3874 9.87682 13.7374C9.54982 13.8734 9.17682 14.0014 8.82782 14.0014Z" fill="white"/>
</svg>
